<svg xmlns="http://www.w3.org/2000/svg" xmlns:xlink="http://www.w3.org/1999/xlink" version="1.1" enable-background="new 0 0 100 100" xml:space="preserve" width="100" height="125"><rect id="backgroundrect" width="100%" height="100%" x="0" y="0" fill="none" stroke="none"/><g class="currentLayer" style=""><title>Layer 1</title><g id="svg_1" class="selected"><path d="M72.818,20.086c-1.276-1.312-2.926-1.912-4.504-2.097c-0.187-1.32-0.159-2.588-0.566-3.698   c-0.951-2.599-2.857-4.437-5.271-5.739c-2.918-1.574-5.981-2.378-9.302-1.562c-1.355,0.333-2.502,1.051-3.479,2.08   c-1.181-1.229-2.556-2.005-4.179-2.232c-4.486-0.627-8.291,0.893-11.539,3.894c-1.984,1.833-3.061,4.11-2.747,6.9   c0.011,0.1-0.031,0.207-0.046,0.295c-2.53,0.514-3.89,1.208-5.341,2.889c-2.441,2.828-3.502,6.165-3.309,9.865   c0.158,3.021,1.286,5.562,4.065,7.125c0.03,0.017,0.037,0.076,0.054,0.116c-1.356,2.708-1.659,4.188-1.117,6.565   c0.898,3.936,3.119,6.941,6.632,8.939c1.723,0.979,3.594,1.359,5.568,0.964c0.582-0.116,1.145-0.326,1.711-0.491   c1.154,2.602,1.776,3.505,3.342,4.522c1.667,1.083,3.406,1.696,5.196,1.912c-0.016,0.097-0.03,0.196-0.03,0.298v9.267   c-6.624,0.187-13.232,1.65-13.232,4.622c0,0.206,0.034,0.403,0.095,0.595h-0.012v4.679l2.209,1.694l4.625,12.356l0.272,0.161   c0.112,0.066,1.174,0.662,3.83,1.069c0.248,0.036,2.324,0.341,3.423,0.341c0.075,0,0.146-0.001,0.21-0.004   c1.091,0.048,3.446-0.299,3.714-0.338c2.653-0.406,3.714-1.002,3.826-1.068l0.272-0.161l4.625-12.356l2.209-1.694v-4.679h-0.012   c0.061-0.191,0.095-0.389,0.095-0.595c0-2.871-6.169-4.331-12.561-4.596v-9.293c0-0.127-0.014-0.251-0.039-0.371   c0.678-0.098,1.36-0.226,2.047-0.415c2.439-0.671,4.427-2.022,5.668-4.301c0.284-0.522,0.484-1.089,0.743-1.683   c1.919,0.84,3.866,0.904,5.819,0.197c3.08-1.115,5.229-3.29,6.782-6.098c1.034-1.869,1.634-3.849,1.434-6.031   c-0.133-1.447-0.448-2.815-1.335-4.029c0.144-0.097,0.23-0.163,0.323-0.217c1.657-0.968,2.852-2.353,3.341-4.199   C77.682,28.378,76.508,23.882,72.818,20.086z M60.315,80.377l-4.566,12.199c-0.411,0.168-1.328,0.479-2.926,0.724   c-0.671,0.102-2.579,0.352-3.445,0.319c-0.776,0.03-2.697-0.219-3.365-0.318c-1.604-0.245-2.522-0.559-2.929-0.724l-4.566-12.2   l-1.915-1.468v-1.963c2.694,1.509,7.881,2.218,12.814,2.218c4.932,0,10.118-0.709,12.813-2.217v1.962L60.315,80.377z    M62.146,74.521c0,0.778-4.461,2.683-12.73,2.683c-8.27,0-12.731-1.904-12.731-2.683c0-0.731,3.939-2.456,11.272-2.662v1.725   c0,0.991,0.804,1.794,1.794,1.794s1.794-0.803,1.794-1.794v-1.697C58.442,72.177,62.146,73.812,62.146,74.521z M74.629,32.066   c-0.64,3.273-2.966,4.812-6.351,4.461c-0.199-0.021-0.397-0.054-0.733-0.1c0.225,0.141,0.333,0.225,0.453,0.282   c3.538,1.678,4.838,4.546,3.667,8.284c-0.899,2.869-2.668,5.098-5.282,6.603c-2.988,1.72-5.932,1.089-8.004-1.665   c-0.214-0.284-0.408-0.583-0.68-0.974c0.148,0.829,0.324,1.523,0.389,2.228c0.244,2.645-0.847,4.658-3.148,5.892   c-3.361,1.803-6.841,1.834-10.247,0.135c-2.87-1.431-3.975-4.103-3.203-7.276c0.062-0.255,0.128-0.509,0.099-0.814   c-0.186,0.262-0.371,0.526-0.56,0.787c-1.887,2.61-4.716,3.385-7.575,1.901c-3.461-1.797-5.512-4.687-6.094-8.563   c-0.217-1.447,0.096-2.86,0.871-4.059c0.662-1.025,1.63-1.833,2.791-2.336c0.24-0.104,0.48-0.206,0.806-0.346   c-0.974,0-1.849,0.096-2.694-0.019c-2.217-0.302-3.84-1.839-4.335-4.196c-0.795-3.783,0.073-7.217,2.566-10.161   c1.978-2.336,4.645-2.789,7.399-1.435c0.14,0.069,0.28,0.139,0.489,0.153c-0.22-0.25-0.441-0.499-0.659-0.751   c-1.718-1.98-1.963-4.367-0.41-6.471c2.645-3.585,6.276-5.237,10.725-4.854c2.333,0.201,3.996,1.83,4.542,4.145   c0.082,0.347,0.134,0.702,0.187,0.983c0.295-0.821,0.6-1.703,0.929-2.576c0.461-1.223,1.504-1.794,2.626-2.22   c1.911-0.727,3.834-0.491,5.732,0.076c2.145,0.641,4.073,1.743,5.551,3.392c2.034,2.268,2.567,4.895,0.323,7.523   c-0.216,0.254-0.448,0.494-0.633,0.813c0.308-0.14,0.613-0.287,0.925-0.419c2.431-1.024,4.792-0.635,6.591,1.28   C74.409,24.676,75.389,28.18,74.629,32.066z" id="svg_2"/><path d="M48.702,47.439V36.862l-7.714,7.714C43.2,46.171,45.862,47.186,48.702,47.439z" id="svg_3"/><path d="M50.681,17.991V34.31l9.175,9.175c2.848-2.693,4.612-6.52,4.608-10.807C64.458,24.871,58.377,18.497,50.681,17.991z" id="svg_4"/><path d="M34.916,32.79c-0.009,4.215,1.757,7.893,4.54,10.518l9.246-9.246V17.992C40.973,18.501,34.934,24.899,34.916,32.79z" id="svg_5"/><path d="M50.681,47.464c2.854-0.184,5.47-1.16,7.641-2.714l-7.641-7.641V47.464z" id="svg_6"/></g></g></svg>