<svg xmlns="http://www.w3.org/2000/svg" width="512" height="640" style=""><rect id="backgroundrect" width="100%" height="100%" x="0" y="0" fill="none" stroke="none"/><title>Peace-Emoji-Emotion-Face-Expression-Feeling</title><g class="currentLayer" style=""><title>Layer 1</title><path d="M415.65,229.55V50A27.24,27.24,0,0,0,377,25.27l-58.7,27.27L281.2,11.34a33.89,33.89,0,0,0-50.4,0l-37.05,41.2-58.7-27.27A27.24,27.24,0,0,0,96.35,50V229.55c0,84.6,66.16,154,149.45,159.31v32.3a52.22,52.22,0,0,0-6.39-5.82c-42.66-32.45-104.9-29.19-107.53-29a10,10,0,0,0-8.61,13.93c1,2.33,25.09,57.39,77.1,76.75,11.14,4.14,23.23,5.33,33.45,5.33,4.42,0,8.48-.22,12-.53v20.27a10,10,0,0,0,20,0v-20.3c3.58.32,7.79.56,12.38.56,10.22,0,22.31-1.19,33.45-5.33,52-19.36,76.1-74.42,77.1-76.75a10,10,0,0,0-8.61-13.93c-2.63-.15-64.87-3.41-107.53,29a51.28,51.28,0,0,0-6.79,6.26V388.88C349.28,383.8,415.65,314.28,415.65,229.55ZM207.35,458.23c-28.94-10.77-48.21-35.81-58-51.74,19.71,1.16,53.32,6,78,24.77,10,7.61,14.82,21.35,17,30.57C234.81,462.68,219.92,462.91,207.35,458.23Zm77.35-27c24.56-18.69,58.22-23.57,78-24.74-9.82,15.92-29.08,41-58,51.71-12.57,4.68-27.47,4.45-37,3.6C269.88,452.6,274.7,438.87,284.7,431.26ZM385.37,43.41A7.24,7.24,0,0,1,395.65,50v96.35L279.74,92.48ZM245.67,24.72a13.88,13.88,0,0,1,20.66,0l32.95,36.63L256,81.45l-43.28-20.1ZM256,369.19c-77,0-139.65-62.64-139.65-139.64V50a7.24,7.24,0,0,1,10.28-6.56l269,125v61.18C395.65,306.55,333,369.19,256,369.19Z" id="svg_1" class="selected"/><path d="M288.74,256.54a10,10,0,0,0-9.51,6.94h0l0-.15c-.5,1.38-5.39,13.53-24,13.53s-23.53-12.15-24-13.53l0,.15h0a10,10,0,0,0-19.51,3,9.89,9.89,0,0,0,.48,3.05h0c.36,1.11,9.14,27.27,43,27.27s42.66-26.16,43-27.27h0a9.89,9.89,0,0,0,.48-3.05A10,10,0,0,0,288.74,256.54Z" id="svg_2" class="selected"/><path d="M205.17,217.63a10,10,0,0,0-10,10,7.56,7.56,0,0,1-15.11,0,10,10,0,0,0-20,0,27.56,27.56,0,0,0,55.11,0A10,10,0,0,0,205.17,217.63Z" id="svg_3" class="selected"/><path d="M341.94,217.63a10,10,0,0,0-10,10,7.56,7.56,0,0,1-15.11,0,10,10,0,0,0-20,0,27.56,27.56,0,0,0,55.11,0A10,10,0,0,0,341.94,217.63Z" id="svg_4" class="selected"/></g></svg>